<?xml version="1.0" encoding="UTF-8"?>
<svg id="Layer_2" data-name="Layer 2" xmlns="http://www.w3.org/2000/svg" viewBox="0 0 258 258">
  <defs>
    <style>
      .cls-1 {
        stroke: #000;
        stroke-miterlimit: 10;
      }

      .cls-1, .cls-2 {
        fill: #000;
      }

      .cls-2, .cls-3 {
        stroke-width: 0px;
      }

      .cls-3 {
        fill: #f2f2f2;
      }
    </style>
  </defs>
  <g id="Layer_1-2" data-name="Layer 1">
    <g>
      <rect class="cls-2" x=".5" y=".5" width="257" height="257" rx="49.19" ry="49.19"/>
      <path class="cls-2" d="M208.31,1c26.85,0,48.69,21.84,48.69,48.69v158.61c0,26.85-21.84,48.69-48.69,48.69H49.69c-26.85,0-48.69-21.84-48.69-48.69V49.69C1,22.84,22.84,1,49.69,1h158.61M208.31,0H49.69C22.25,0,0,22.25,0,49.69v158.61c0,27.45,22.25,49.69,49.69,49.69h158.61c27.45,0,49.69-22.25,49.69-49.69V49.69c0-27.45-22.25-49.69-49.69-49.69h0Z"/>
    </g>
    <path class="cls-3" d="M133.49,95.62v22.93h35.72l.23,2.38,1.93,19.76,1.54,15.86h23.09v-60.93h-62.51ZM169.4,111.39c-.19.65-.43,1.3-.71,1.93-.77,1.86-1.74,3.6-2.93,5.23-.34.48-.71.96-1.1,1.42-.27.33-.56.64-.85.96-3.4,3.72-7.8,6.56-13.21,8.54-5.87,2.14-12.61,3.21-20.25,3.21s-14.68-1.3-20.49-3.92c-4.24-1.91-7.78-4.52-10.59-7.83-1.05-1.22-1.99-2.54-2.84-3.95-3.15-5.24-4.71-11.68-4.71-19.32s1.46-13.85,4.39-18.93,7.07-8.9,12.41-11.46c5.34-2.56,11.68-3.85,19.01-3.85,6.06,0,11.48.77,16.25,2.28,4.76,1.52,8.74,3.73,11.93,6.6,3.2,2.88,5.32,6.31,6.37,10.29h32.82c-1.68-9.11-5.4-17.12-11.15-24.03-5.76-6.92-13.36-12.35-22.78-16.33-9.41-3.98-20.62-5.97-33.6-5.97-9.73,0-18.72,1.33-26.93,4-8.22,2.66-15.45,6.62-21.67,11.86-6.23,5.24-11.07,11.68-14.52,19.32s-5.18,16.39-5.18,26.22c0,8.6,1.29,16.35,3.89,23.26.38,1.01.78,1.99,1.21,2.96,3.4,7.64,8.17,14.08,14.28,19.32,6.13,5.24,13.22,9.18,21.28,11.86,8.06,2.66,16.7,4,25.92,4s18.08-1.42,25.37-4.24c7.27-2.82,13.35-6.75,18.21-11.78.74-.77,1.46-1.56,2.15-2.36,3.83-4.44,6.83-9.38,9-14.83.65-1.61,1.22-3.26,1.73-4.93,1.5-4.94,2.37-10.09,2.6-15.42l-13.98-.62c-.21,2.29-.64,4.46-1.32,6.5Z"/>
    <path class="cls-3" d="M162.54,167.99h33.01v6.66c0,26.44-21.63,48.07-48.07,48.07H62.94c-1.92,0-3.49-1.57-3.49-3.49v-80.3c3.26,4.85,7.14,9.19,11.57,12.98,7.22,6.18,15.67,10.9,25.11,14.02,9.18,3.04,19.11,4.59,29.51,4.59,11,0,20.93-1.69,29.51-5.02,2.38-.91,4.65-1.96,6.84-3.09l.55,5.59Z"/>
    <circle class="cls-1" cx="84" cy="201" r="14.5"/>
  </g>
</svg>